<svg width="280" height="48" viewBox="0 0 280 48" fill="none" xmlns="http://www.w3.org/2000/svg">
<path d="M112.998 31.8906H114.661L118.904 16.2139H124.766L118.554 35.9082C118 37.5384 117.46 39.0232 116.936 40.3623C116.411 41.7306 115.798 42.9096 115.098 43.8994C114.398 44.8891 113.567 45.6459 112.604 46.1699C111.671 46.7231 110.519 47 109.148 47C108.478 47 107.836 46.9129 107.224 46.7383C106.64 46.5636 106.101 46.345 105.605 46.083C105.11 45.8501 104.672 45.588 104.293 45.2969C103.914 45.0349 103.607 44.7876 103.374 44.5547L106.305 40.668C106.684 40.9881 107.136 41.279 107.661 41.541C108.186 41.8321 108.682 41.9785 109.148 41.9785C110.023 41.9785 110.709 41.6728 111.205 41.0615C111.73 40.4502 112.226 39.4452 112.692 38.0479H109.586L100.487 16.2139H106.655L112.998 31.8906Z" fill="#1E2A38"/>
<path fill-rule="evenodd" clip-rule="evenodd" d="M142.022 15.6025C143.364 15.6025 144.589 15.8211 145.697 16.2578C146.834 16.6654 147.797 17.3203 148.584 18.2227C149.401 19.1251 150.028 20.2606 150.466 21.6289C150.903 22.9971 151.122 24.6422 151.122 26.5635C151.122 28.4266 150.874 30.1151 150.378 31.6289C149.882 33.1135 149.168 34.3797 148.234 35.4277C147.301 36.4758 146.164 37.2769 144.822 37.8301C143.481 38.3832 141.949 38.6592 140.229 38.6592C139.325 38.6592 138.435 38.5869 137.561 38.4414C136.686 38.325 135.956 38.1212 135.373 37.8301V46.7812H129.686V21.0176H126.405V16.2139H133.842L134.498 18.834H134.673C136.189 16.6797 138.639 15.6025 142.022 15.6025ZM140.316 20.4062C139.208 20.4062 138.187 20.6822 137.254 21.2354C136.35 21.7884 135.723 22.6185 135.373 23.7246V32.8076C135.781 33.1278 136.365 33.39 137.123 33.5938C137.91 33.7684 138.698 33.8555 139.485 33.8555C140.302 33.8554 141.06 33.7248 141.76 33.4629C142.46 33.1718 143.073 32.7207 143.598 32.1094C144.123 31.4981 144.531 30.7264 144.822 29.7949C145.114 28.8634 145.26 27.7425 145.26 26.4326C145.26 24.5112 144.793 23.0266 143.859 21.9785C142.926 20.9305 141.745 20.4063 140.316 20.4062Z" fill="#1E2A38"/>
<path d="M86.0176 16.2139H97.4795V21.0176H86.0176V27.2617C86.0176 29.5033 86.4404 31.1344 87.2861 32.1533C88.1319 33.1431 89.3136 33.6377 90.8301 33.6377C91.6175 33.6377 92.3321 33.5506 92.9736 33.376C93.6152 33.1722 94.1839 32.9239 94.6797 32.6328C95.2044 32.3418 95.671 32.022 96.0791 31.6729C96.5166 31.3235 96.9108 31.003 97.2607 30.7119L99.8857 34.6416C99.39 35.2238 98.7622 35.7629 98.0039 36.2578C97.2749 36.7235 96.4734 37.146 95.5986 37.5244C94.7529 37.8738 93.8629 38.1497 92.9297 38.3535C91.9965 38.5573 91.0779 38.6592 90.1738 38.6592C86.9074 38.6592 84.4426 37.7571 82.7803 35.9521C81.1471 34.1181 80.3311 31.2209 80.3311 27.2617V21.0176H76V16.2139H80.3311V11.2354L86.0176 9.62012V16.2139Z" fill="#1E2A38"/>
<path fill-rule="evenodd" clip-rule="evenodd" d="M165.104 15.6025C166.941 15.6025 168.574 15.8795 170.003 16.4326C171.461 16.9857 172.686 17.7712 173.678 18.79C174.669 19.7799 175.413 20.9885 175.909 22.415C176.434 23.8414 176.696 25.4134 176.696 27.1309C176.696 28.9648 176.419 30.5951 175.865 32.0215C175.311 33.448 174.524 34.6567 173.503 35.6465C172.482 36.6363 171.257 37.393 169.828 37.917C168.428 38.4119 166.853 38.6592 165.104 38.6592C163.266 38.6592 161.618 38.3832 160.16 37.8301C158.731 37.277 157.521 36.5053 156.529 35.5156C155.538 34.4967 154.78 33.2732 154.255 31.8467C153.759 30.4203 153.511 28.8484 153.511 27.1309C153.511 25.2969 153.788 23.6667 154.342 22.2402C154.896 20.8137 155.683 19.605 156.704 18.6152C157.725 17.6256 158.935 16.8835 160.335 16.3887C161.764 15.8647 163.354 15.6025 165.104 15.6025ZM165.104 20.4062C164.287 20.4062 163.529 20.5369 162.829 20.7988C162.129 21.0317 161.516 21.4254 160.991 21.9785C160.496 22.5316 160.102 23.2302 159.811 24.0742C159.519 24.9184 159.373 25.9373 159.373 27.1309C159.373 28.0916 159.504 28.9798 159.767 29.7949C160.029 30.61 160.409 31.3233 160.904 31.9346C161.4 32.5458 161.997 33.0267 162.697 33.376C163.397 33.6962 164.199 33.8555 165.104 33.8555C166.795 33.8555 168.166 33.3174 169.216 32.2402C170.295 31.1631 170.834 29.4598 170.834 27.1309C170.834 25.1223 170.338 23.5068 169.347 22.2842C168.355 21.0324 166.941 20.4063 165.104 20.4062Z" fill="#1E2A38"/>
<path fill-rule="evenodd" clip-rule="evenodd" d="M276.807 26.3447C276.807 28.528 276.923 30.6825 277.156 32.8076C277.156 32.953 277.171 33.0987 277.2 33.2441H280V38.0479H272.957L272.388 35.2529H272.213C271.921 35.7769 271.528 36.2429 271.032 36.6504C270.537 37.0579 269.982 37.422 269.37 37.7422C268.758 38.0333 268.087 38.2519 267.357 38.3975C266.628 38.5721 265.899 38.6592 265.17 38.6592C263.799 38.6592 262.501 38.4406 261.276 38.0039C260.081 37.5673 259.031 36.8983 258.127 35.9961C257.223 35.0645 256.508 33.8993 255.983 32.502C255.458 31.0755 255.196 29.4017 255.196 27.4805C255.196 25.6173 255.473 23.9576 256.027 22.502C256.611 21.0465 257.398 19.8237 258.39 18.834C259.41 17.8151 260.606 17.0435 261.977 16.5195C263.347 15.9664 264.849 15.6904 266.482 15.6904C267.386 15.6904 268.232 15.7478 269.02 15.8643C269.836 15.9516 270.536 16.1119 271.119 16.3447V12.2842H267.664V7.48047H276.807V26.3447ZM267.183 20.4932C266.395 20.4932 265.622 20.6248 264.864 20.8867C264.135 21.1487 263.479 21.5711 262.896 22.1533C262.341 22.7064 261.889 23.4336 261.539 24.3359C261.218 25.2384 261.058 26.3452 261.058 27.6553C261.058 29.5183 261.525 31.018 262.458 32.1533C263.391 33.2884 264.733 33.8555 266.482 33.8555C267.59 33.8555 268.567 33.5941 269.413 33.0703C270.288 32.5172 270.857 31.7307 271.119 30.7119V21.4541C270.711 21.134 270.142 20.9014 269.413 20.7559C268.713 20.5812 267.97 20.4932 267.183 20.4932Z" fill="#1E2A38"/>
<path fill-rule="evenodd" clip-rule="evenodd" d="M216.559 15.7773C218.075 15.7773 219.358 15.9663 220.408 16.3447C221.487 16.694 222.348 17.2035 222.989 17.873C223.66 18.5426 224.141 19.3438 224.433 20.2754C224.724 21.2069 224.87 22.2546 224.87 23.4189C224.87 24.9037 224.812 26.1707 224.695 27.2188C224.608 28.2664 224.564 29.1978 224.564 30.0127C224.564 30.624 224.593 31.3085 224.651 32.0654C224.71 32.4729 224.754 32.8658 224.783 33.2441H227.626V38.0479H220.364L219.796 35.0781H219.577C218.994 35.9805 218.163 36.767 217.084 37.4365C216.005 38.077 214.546 38.3975 212.709 38.3975C210.522 38.3975 208.786 37.8149 207.503 36.6504C206.22 35.4859 205.578 33.9428 205.578 32.0215C205.578 30.799 205.797 29.7512 206.234 28.8779C206.701 27.9755 207.357 27.2475 208.203 26.6943C209.078 26.1122 210.113 25.6897 211.309 25.4277C212.533 25.1366 213.89 24.9912 215.377 24.9912C215.902 24.9912 216.457 25.0199 217.04 25.0781C217.623 25.1363 218.338 25.1947 219.184 25.2529C219.242 24.9619 219.271 24.6709 219.271 24.3799V23.5498C219.27 22.4439 218.95 21.6581 218.309 21.1924C217.667 20.6975 216.719 20.4502 215.465 20.4502C213.978 20.4502 212.636 20.6392 211.44 21.0176C210.245 21.396 209.238 21.7739 208.422 22.1523L207.065 17.6982C208.232 17.1743 209.573 16.7232 211.09 16.3447C212.636 15.9663 214.459 15.7773 216.559 15.7773ZM216.033 28.3975C215.479 28.3975 214.925 28.4558 214.371 28.5723C213.817 28.6596 213.321 28.8199 212.884 29.0527C212.446 29.2565 212.096 29.5326 211.834 29.8818C211.572 30.2312 211.44 30.6535 211.44 31.1484C211.44 31.9636 211.674 32.6045 212.141 33.0703C212.636 33.5067 213.438 33.7246 214.546 33.7246C215.946 33.7246 216.996 33.4773 217.696 32.9824C218.396 32.4585 218.907 31.9054 219.228 31.3232V28.7031C218.936 28.6449 218.498 28.5865 217.915 28.5283C217.332 28.441 216.704 28.3975 216.033 28.3975Z" fill="#1E2A38"/>
<path d="M199.864 38.0479H179.26V33.2441H199.864V38.0479Z" fill="#1E2A38"/>
<path d="M245.17 33.2441H253.264V38.0479H231.784V33.2441H239.483V21.0176H231.784V16.2139H245.17V33.2441Z" fill="#1E2A38"/>
<path d="M196.408 15.7334C198.158 15.7334 199.529 16.3743 200.521 17.6553C201.541 18.9362 202.052 21.0757 202.052 24.0742H196.934C196.934 23.0263 196.773 22.2695 196.452 21.8037C196.161 21.3088 195.679 21.0616 195.009 21.0615C193.842 21.0615 192.894 21.3523 192.165 21.9346C191.465 22.5168 190.867 23.1865 190.371 23.9434V30H184.685V21.0176H179.26V16.2139H189.103L189.759 19.0957H189.934C190.75 18.1351 191.684 17.3348 192.733 16.6943C193.783 16.0539 195.008 15.7334 196.408 15.7334Z" fill="#1E2A38"/>
<path d="M242.239 7C243.464 7.00001 244.441 7.3205 245.17 7.96094C245.899 8.6014 246.264 9.37292 246.264 10.2754C246.264 11.2069 245.899 11.9786 245.17 12.5898C244.441 13.1719 243.464 13.4629 242.239 13.4629C241.044 13.4629 240.11 13.172 239.439 12.5898C238.769 11.9786 238.434 11.2069 238.434 10.2754C238.434 9.37297 238.769 8.60138 239.439 7.96094C240.11 7.32047 241.044 7 242.239 7Z" fill="#1E2A38"/>
<path d="M32 0C32 0 48 0 48 16C48 32 32 32 32 32L48 48H16V16H32V0Z" fill="#256AEA"/>
<rect x="56" width="8" height="48" fill="#256AEA"/>
<path d="M16 48V16L48 48H16Z" fill="#337AFF"/>
<path d="M0 0H16V16H0V0Z" fill="#256AEA"/>
</svg>
